<svg width="32" height="32" viewBox="0 0 32 32" fill="none" xmlns="http://www.w3.org/2000/svg">
<path d="M27.497 0C29.9914 0 32 2.00861 32 4.503V27.497C32 29.9914 29.9914 32 27.497 32H4.503C2.00861 32 0 29.9914 0 27.497V4.503C0 2.00861 2.00861 0 4.503 0H27.497ZM15.283 3.27001C11.6515 3.27001 8.699 6.22374 8.699 9.855C8.699 13.486 11.6515 16.438 15.283 16.438C18.9146 16.438 21.869 13.486 21.869 9.855C21.869 6.22374 18.9146 3.27001 15.283 3.27001ZM15.353 7.12803C16.824 7.16546 18.01 8.37551 18.01 9.85503C18.01 11.3574 16.7863 12.58 15.283 12.58C13.78 12.58 12.558 11.3574 12.558 9.85503C12.558 8.35206 13.78 7.12803 15.283 7.12803C15.3065 7.12803 15.3296 7.12742 15.353 7.12803ZM20.735 16.662C20.3862 16.6632 20.0343 16.7592 19.717 16.959C17.0217 18.6538 13.5472 18.6549 10.851 16.959C9.94828 16.3905 8.75849 16.6634 8.19001 17.566C7.62217 18.4671 7.89494 19.6585 8.79702 20.226C9.97311 20.9652 11.2656 21.5004 12.62 21.809L8.93801 25.491C8.18425 26.2432 8.18425 27.4657 8.93801 28.219C9.69215 28.9726 10.9122 28.9726 11.665 28.219L15.285 24.601L18.901 28.219C19.2775 28.5957 19.7716 28.784 20.265 28.784C20.7589 28.784 21.2513 28.5952 21.629 28.219C22.3826 27.4653 22.3824 26.2448 21.629 25.491L17.949 21.809C19.2891 21.5035 20.5822 20.9731 21.773 20.226C22.6733 19.6585 22.944 18.4684 22.376 17.566C22.022 17.0019 21.424 16.6833 20.805 16.663C20.7817 16.6623 20.7583 16.6619 20.735 16.662H20.735Z" fill="#8B8F93"/>
</svg>
